<?xml version="1.0" encoding="utf-8"?>
<!-- Generator: Adobe Illustrator 19.0.0, SVG Export Plug-In . SVG Version: 6.00 Build 0)  -->
<svg version="1.1" id="Layer_1" xmlns="http://www.w3.org/2000/svg" xmlns:xlink="http://www.w3.org/1999/xlink" x="0px" y="0px"
	 viewBox="0 0 1000 1000" style="enable-background:new 0 0 1000 1000;" xml:space="preserve">
<style type="text/css">
	.st0{fill:#333333;}
	.st1{fill:#009245;}
</style>
<g>
	<g>
		<path class="st0" d="M606.9,192.2L500.3,299h92.3c31.3,0,58.5,2.5,81.3,8.1l89-89.6C718.7,200.1,665.5,192.5,606.9,192.2z"/>
		<polygon class="st0" points="499.6,482.5 499.6,299.7 366.5,432.9 366.5,573 409.7,573 		"/>
		<path class="st0" d="M604.1,192.2c-0.4,0-0.7,0-1.1,0H366.5v237.9L604.1,192.2z"/>
		<path class="st0" d="M764.9,218.3l-88.8,89.3c56.9,14.7,86.3,49.7,86.3,116.5c0,91.8-53.9,136.6-165.3,136.6h0h-97.6v-75.4
			L410.5,575h-44v368h133.1V667.5h108c161.8,0,285.8-76.9,285.8-243.4C893.4,313.6,843.7,250,764.9,218.3z"/>
	</g>
	<polygon class="st1" points="740.5,59 364.9,434.9 197.2,267.9 108,358.5 320,573.4 409.7,573.4 829.6,150.8 	"/>
</g>
</svg>
