<svg xmlns="http://www.w3.org/2000/svg" style="enable-background:new 0 0 1000 300" id="Layer_1" viewBox="0 0 1000 300">
  <style>
    .letter{fill:#333}
    .check-mark{fill:#009245;stroke:#fff;stroke-width:2;stroke-miterlimit:10}
  </style>
  <g>
    <g>
      <path d="M82.3 79.2h48.8C165.4 79.2 191 91 191 127c0 34.3-25.6 50.2-59 50.2h-22.3V234H82.3V79.2zm47.6 76c23 0 34.1-9.2 34.1-28.2 0-19.4-12.1-25.8-35-25.8h-19.2v54h20.1z" class="letter"/>
      <path d="M220.1 110.2h46.2c27.9 0 50.2 9 50.2 38.4 0 17.8-9.9 29.8-24.9 35.8l30.5 49.7H293l-26.8-45.2h-18.7V234H220V110.2zm44.1 59.4c17.5 0 26.3-7.1 26.3-19.7 0-13.3-9.7-18.2-26.5-18.2h-16.3v37.9h16.5z" class="letter"/>
      <path d="M340.4 171.5c0-40.7 24.4-64.2 59.9-64.2 35 0 59.7 23.7 59.7 64.2 0 40.7-24.6 65.4-59.7 65.4-35.5 0-59.9-24.6-59.9-65.4zm91.4 0c0-26-12.3-41.4-31.5-41.4-19.7 0-31.7 15.4-31.7 41.4 0 26.3 12.1 42.6 31.7 42.6 19.2 0 31.5-16.3 31.5-42.6z" class="letter"/>
      <path d="M524.4 79.2h31l27.5 75.8c3.3 9.7 6.6 20.1 9.9 30.3h.9c3.3-10.2 6.4-20.6 9.7-30.3l26.8-75.8h31.3V234h-25.3v-70.8c0-14.4 2.1-35 3.6-49.3h-.9l-12.5 36-25.3 69.6h-16.3L559 150l-12.3-36h-.9c1.2 14.2 3.6 34.8 3.6 49.3V234h-24.9V79.2z" class="letter"/>
      <path d="M722.8 110.2h32L796.9 234h-28.7l-8.8-30.1h-42.1l-9 30.1h-27.7l42.2-123.8zm.5 73.9h30.3l-4-13.5c-3.8-12.8-7.1-26.8-10.9-39.5h-.9c-3.6 13-6.9 26.8-10.4 39.5l-4.1 13.5z" class="letter"/>
      <path d="M816.1 110.2h27.7l37.2 63.5 14 27.9h.9c-1.2-13-3.3-31.3-3.3-45.7v-45.7h25.1V234h-27l-37.9-63.5-14-27.9h-.9c1.4 13.5 3.6 31 3.6 45.5V234h-25.3V110.2z" class="letter"/>
    </g>
    <g>
      <path d="M398.5 189h-22.1l-51.8-52.6 22.1-22.4 40.8 40.7 91.4-91.6 22 22.8z" class="check-mark"/>
    </g>
  </g>
</svg>